<svg xmlns="http://www.w3.org/2000/svg" width="24" height="24" viewBox="0 0 24 24" fill="none">
<path d="M7.33047 9.29994L5.88447 9.05244C5.37322 8.96599 4.8496 8.9865 4.34668 9.11268C3.84376 9.23886 3.37247 9.46796 2.96258 9.78552C2.55269 10.1031 2.21311 10.5022 1.96529 10.9576C1.71747 11.4131 1.56679 11.915 1.52278 12.4316C1.47876 12.9482 1.54237 13.4684 1.70957 13.9592C1.87677 14.45 2.14394 14.9008 2.4942 15.2831C2.84446 15.6655 3.2702 15.971 3.74453 16.1804C4.21886 16.3899 4.73146 16.4987 5.24997 16.4999H8.99997V17.9999H5.24997C4.52316 17.9998 3.8043 17.8488 3.13889 17.5565C2.47347 17.2641 1.87602 16.8367 1.38434 16.3015C0.892668 15.7662 0.517489 15.1347 0.282559 14.4469C0.0476303 13.7591 -0.0419302 13.0301 0.0195488 12.3058C0.0810277 11.5816 0.292207 10.8781 0.639714 10.2398C0.987222 9.60141 1.46349 9.04217 2.03835 8.59745C2.61322 8.15273 3.27417 7.83222 3.97934 7.65621C4.68451 7.4802 5.41855 7.45252 6.13497 7.57494C6.31267 6.59276 6.68455 5.65591 7.22883 4.81926C7.77312 3.9826 8.47886 3.26295 9.30475 2.70244C10.1306 2.14194 11.06 1.75186 12.0386 1.55504C13.0171 1.35822 14.025 1.35861 15.0034 1.5562C15.9818 1.75379 16.9109 2.1446 17.7363 2.70575C18.5618 3.2669 19.267 3.9871 19.8106 4.82419C20.3542 5.66127 20.7254 6.59841 20.9023 7.58072C21.0792 8.56304 21.0584 9.57078 20.841 10.5449C21.7713 10.6952 22.611 11.1901 23.1931 11.9312C23.7752 12.6724 24.0571 13.6055 23.9826 14.5449C23.9081 15.4844 23.4828 16.3614 22.7912 17.0016C22.0996 17.6417 21.1924 17.9981 20.25 17.9999H15V16.4999H20.25C20.8156 16.4996 21.3603 16.2862 21.7757 15.9023C22.191 15.5184 22.4466 14.9921 22.4914 14.4283C22.5362 13.8644 22.3671 13.3044 22.0176 12.8597C21.6681 12.415 21.1639 12.1182 20.6055 12.0284L19.05 11.7809L19.374 10.2389C19.5303 9.46647 19.5329 8.67078 19.3817 7.89729C19.2305 7.12381 18.9284 6.38768 18.4927 5.73094C18.057 5.0742 17.4963 4.5097 16.8424 4.06968C16.1886 3.62967 15.4544 3.32274 14.682 3.16644C13.9095 3.01013 13.1138 3.0075 12.3403 3.15871C11.5668 3.30991 10.8307 3.61198 10.174 4.04767C9.51723 4.48337 8.95274 5.04415 8.51272 5.698C8.0727 6.35185 7.76578 7.08597 7.60947 7.85844L7.33197 9.29844L7.33047 9.29994Z" fill="currentColor"/>
<path fill-rule="evenodd" clip-rule="evenodd" d="M7.49988 13.2811C7.64053 13.4217 7.83126 13.5007 8.03013 13.5007C8.229 13.5007 8.41974 13.4217 8.56038 13.2811L11.9999 9.84013L15.4394 13.2796C15.5086 13.3513 15.5913 13.4084 15.6828 13.4477C15.7743 13.487 15.8727 13.5077 15.9723 13.5086C16.0719 13.5094 16.1707 13.4905 16.2628 13.4527C16.355 13.415 16.4388 13.3593 16.5092 13.2889C16.5796 13.2185 16.6353 13.1348 16.673 13.0426C16.7107 12.9504 16.7297 12.8517 16.7288 12.7521C16.728 12.6525 16.7073 12.5541 16.668 12.4626C16.6287 12.3711 16.5715 12.2883 16.4999 12.2191L12.5309 8.25013C12.4612 8.18028 12.3784 8.12487 12.2873 8.08706C12.1962 8.04925 12.0985 8.02979 11.9999 8.02979C11.9012 8.02979 11.8035 8.04925 11.7124 8.08706C11.6213 8.12487 11.5385 8.18028 11.4689 8.25013L7.49988 12.2191C7.43004 12.2888 7.37462 12.3716 7.33681 12.4627C7.299 12.5538 7.27954 12.6515 7.27954 12.7501C7.27954 12.8488 7.299 12.9465 7.33681 13.0376C7.37462 13.1287 7.43004 13.2115 7.49988 13.2811Z" fill="currentColor"/>
<path fill-rule="evenodd" clip-rule="evenodd" d="M12 9C12.1989 9 12.3897 9.07902 12.5303 9.21967C12.671 9.36032 12.75 9.55109 12.75 9.75V21.75C12.75 21.9489 12.671 22.1397 12.5303 22.2803C12.3897 22.421 12.1989 22.5 12 22.5C11.8011 22.5 11.6103 22.421 11.4697 22.2803C11.329 22.1397 11.25 21.9489 11.25 21.75V9.75C11.25 9.55109 11.329 9.36032 11.4697 9.21967C11.6103 9.07902 11.8011 9 12 9Z" fill="currentColor"/>
</svg>
